<?xml version="1.0" encoding="UTF-8"?>
<svg width="16px" height="16px" viewBox="0 0 16 16" version="1.1" xmlns="http://www.w3.org/2000/svg" xmlns:xlink="http://www.w3.org/1999/xlink">
    <!-- Generator: sketchtool 52.6 (67491) - http://www.bohemiancoding.com/sketch -->
    <title>_UIKIT/Icons/16x16/Platform/iOS/_EXPORT_</title>
    <desc>Created with sketchtool.</desc>
    <g id="Symbols" stroke="none" stroke-width="1" fill="none" fill-rule="evenodd">
        <g id="_UIKIT/Icons/16x16/Platform/iOS/_EXPORT_" fill="#000000">
            <path d="M10.4667728,2.64069802 C9.55621441,4.0436467 7.72191102,4.00027502 7.72191102,4.00027502 C7.72191102,4.00027502 7.41543054,2.56003228 8.58222226,1.28001614 C9.74901397,0 11.1662095,0 11.1662095,0 C11.1662095,0 11.3773312,1.23774933 10.4667728,2.64069802 Z M12.6609613,4.02884112 C13.7973365,4.46459841 14.4815785,5.40862584 14.4815785,5.40862584 C14.4815785,5.40862584 12.5839805,6.3122494 12.6609618,8.55533265 C12.7379431,10.7984159 15,11.7542988 15,11.7542988 C15,11.7542988 14.1329085,13.5753777 13.2714703,14.6373172 C12.8033495,15.2143939 11.8022438,16 11.0767157,16 C10.6062682,16 10.1657685,15.7442523 9.66797569,15.5603178 C9.22404946,15.396287 9.09092322,15.2874336 8.46137604,15.25589 C7.95465126,15.2305004 7.25704229,15.424345 6.88199746,15.6158833 C6.47920355,15.8215933 5.67708812,16.1765004 4.88255646,15.8782 C3.97878262,15.5388856 3.16554683,14.6255489 2.50358879,13.5278095 C1.25968579,11.4650181 1.02578794,9.75835485 1.00245835,8.72033955 C0.993954035,8.34195253 0.963073642,7.04639212 1.82107795,5.70309263 C2.67908225,4.35979313 3.89613681,4.02884111 3.89613681,4.02884111 C3.89613681,4.02884111 5.02431044,3.55724535 6.51251284,4.02884112 C7.36720455,4.29968399 7.80364307,4.57368113 8.35960192,4.52485807 C8.91556077,4.476035 9.18735737,4.25137061 9.95438653,4.02884112 C10.7011169,3.8122007 11.8567288,3.72044806 12.6609613,4.02884112 Z" id="Apple-logo"></path>
        </g>
    </g>
</svg>