<?xml version="1.0" encoding="UTF-8"?>
<svg width="16px" height="16px" viewBox="0 0 16 16" version="1.1" xmlns="http://www.w3.org/2000/svg" xmlns:xlink="http://www.w3.org/1999/xlink">
    <!-- Generator: sketchtool 52.6 (67491) - http://www.bohemiancoding.com/sketch -->
    <title>_UIKIT/Icons/16x16/App/_EXPORT_</title>
    <desc>Created with sketchtool.</desc>
    <g id="Symbols" stroke="none" stroke-width="1" fill="none" fill-rule="evenodd">
        <g id="_UIKIT/Icons/16x16/App/_EXPORT_" fill="#000000" fill-rule="nonzero">
            <path d="M4,12 C4,12.3666667 4.3,12.6666667 4.66666667,12.6666667 L5.33333333,12.6666667 L5.33333333,15 C5.33333333,15.5533333 5.78,16 6.33333333,16 C6.88666667,16 7.33333333,15.5533333 7.33333333,15 L7.33333333,12.6666667 L8.66666667,12.6666667 L8.66666667,15 C8.66666667,15.5533333 9.11333333,16 9.66666667,16 C10.22,16 10.6666667,15.5533333 10.6666667,15 L10.6666667,12.6666667 L11.3333333,12.6666667 C11.7,12.6666667 12,12.3666667 12,12 L12,5.33333333 L4,5.33333333 L4,12 Z M2.33333333,5.33333333 C1.78,5.33333333 1.33333333,5.78 1.33333333,6.33333333 L1.33333333,11 C1.33333333,11.5533333 1.78,12 2.33333333,12 C2.88666667,12 3.33333333,11.5533333 3.33333333,11 L3.33333333,6.33333333 C3.33333333,5.78 2.88666667,5.33333333 2.33333333,5.33333333 Z M13.6666667,5.33333333 C13.1133333,5.33333333 12.6666667,5.78 12.6666667,6.33333333 L12.6666667,11 C12.6666667,11.5533333 13.1133333,12 13.6666667,12 C14.22,12 14.6666667,11.5533333 14.6666667,11 L14.6666667,6.33333333 C14.6666667,5.78 14.22,5.33333333 13.6666667,5.33333333 Z M10.3533333,1.44 L11.22,0.573333333 C11.3533333,0.44 11.3533333,0.233333333 11.22,0.1 C11.0866667,-0.0333333333 10.88,-0.0333333333 10.7466667,0.1 L9.76,1.08666667 C9.23333333,0.82 8.63333333,0.666666667 8,0.666666667 C7.36,0.666666667 6.76,0.82 6.22666667,1.08666667 L5.23333333,0.1 C5.1,-0.0333333333 4.89333333,-0.0333333333 4.76,0.1 C4.62666667,0.233333333 4.62666667,0.44 4.76,0.573333333 L5.63333333,1.44666667 C4.64666667,2.17333333 4,3.34 4,4.66666667 L12,4.66666667 C12,3.34 11.3533333,2.16666667 10.3533333,1.44 Z M6.66666667,3.33333333 L6,3.33333333 L6,2.66666667 L6.66666667,2.66666667 L6.66666667,3.33333333 Z M10,3.33333333 L9.33333333,3.33333333 L9.33333333,2.66666667 L10,2.66666667 L10,3.33333333 Z" id="Shape"></path>
        </g>
    </g>
</svg>