<?xml version="1.0" encoding="UTF-8"?>
<svg width="36px" height="36px" viewBox="0 0 36 36" version="1.1" xmlns="http://www.w3.org/2000/svg" xmlns:xlink="http://www.w3.org/1999/xlink">
    <!-- Generator: sketchtool 52.6 (67491) - http://www.bohemiancoding.com/sketch -->
    <title>_UIKIT/Icons/36x36/Footer/Linkedin/_EXPORT_</title>
    <desc>Created with sketchtool.</desc>
    <g id="Symbols" stroke="none" stroke-width="1" fill="none" fill-rule="evenodd">
        <g id="_UIKIT/Icons/36x36/Footer/Linkedin/_EXPORT_" fill="#000000">
            <g id="icon-linkedin" transform="translate(10.000000, 10.000000)">
                <path d="M3.55555556,1.77777778 C3.55555556,2.75555556 2.93333333,3.55555556 1.77777778,3.55555556 C0.711111111,3.55555556 3.55271368e-15,2.75555556 3.55271368e-15,1.86666667 C3.55271368e-15,0.888888889 0.711111111,0 1.77777778,0 C2.84444444,0 3.55555556,0.8 3.55555556,1.77777778 Z M3.55271368e-15,16 L3.55555556,16 L3.55555556,4.44444444 L3.55271368e-15,4.44444444 L3.55271368e-15,16 Z M12.0888889,4.62222222 C10.2222222,4.62222222 9.15555556,5.68888889 8.71111111,6.4 L8.62222222,6.4 L8.44444444,4.88888889 L5.24444444,4.88888889 C5.24444444,5.86666667 5.33333333,7.02222222 5.33333333,8.35555556 L5.33333333,16 L8.88888889,16 L8.88888889,9.68888889 C8.88888889,9.33333333 8.88888889,9.06666667 8.97777778,8.8 C9.24444444,8.17777778 9.68888889,7.37777778 10.6666667,7.37777778 C11.9111111,7.37777778 12.4444444,8.44444444 12.4444444,9.86666667 L12.4444444,16 L16,16 L16,9.42222222 C16,6.13333333 14.3111111,4.62222222 12.0888889,4.62222222 Z" id="Shape"></path>
            </g>
        </g>
    </g>
</svg>