<?xml version="1.0" encoding="UTF-8"?>
<svg width="36px" height="36px" viewBox="0 0 36 36" version="1.1" xmlns="http://www.w3.org/2000/svg" xmlns:xlink="http://www.w3.org/1999/xlink">
    <!-- Generator: sketchtool 52.6 (67491) - http://www.bohemiancoding.com/sketch -->
    <title>_UIKIT/Icons/36x36/Footer/Twitter/_EXPORT_</title>
    <desc>Created with sketchtool.</desc>
    <g id="Symbols" stroke="none" stroke-width="1" fill="none" fill-rule="evenodd">
        <g id="_UIKIT/Icons/36x36/Footer/Twitter/_EXPORT_" fill="#000000">
            <g id="icon-twitter" transform="translate(9.000000, 11.000000)">
                <path d="M17.28,1.6661157 C16.6428481,1.94807374 15.9617546,2.13848697 15.2440432,2.22636999 C15.9764018,1.78695486 16.5403179,1.09121424 16.8039669,0.263649078 C16.1192117,0.670108074 15.3612206,0.966713287 14.5519644,1.12417038 C13.9038271,0.432091545 12.9810553,0 11.9630769,0 C10.0040178,0 8.41846154,1.58921805 8.41846154,3.54827718 C8.41846154,3.82657343 8.44775588,4.09754609 8.51000636,4.35753338 C5.56226319,4.21106167 2.94774317,2.79760966 1.20106802,0.648137317 C0.897139224,1.17177368 0.721373172,1.78329307 0.721373172,2.43143039 C0.721373172,3.66179275 1.35120153,4.7493452 2.30326764,5.38649714 C1.7173808,5.37184997 1.16811189,5.21073109 0.69207883,4.94342022 L0.69207883,4.98736173 C0.69207883,6.70840432 1.91511761,8.14016529 3.5372918,8.46606484 C3.24068659,8.54662428 2.92577241,8.5905658 2.60353465,8.5905658 C2.3765035,8.5905658 2.15313414,8.56859504 1.93708837,8.52465353 C2.38748887,9.93444374 3.69841068,10.9597457 5.25101081,10.9890401 C4.03895741,11.9411062 2.50832804,12.508684 0.845874126,12.508684 C0.560254291,12.508684 0.278296249,12.4903751 -1.77635684e-15,12.4574189 C1.56358551,13.4753973 3.42743802,14.0612842 5.42677686,14.0612842 C11.9557533,14.0612842 15.5223395,8.65281627 15.5223395,3.96205976 C15.5223395,3.80826446 15.5186777,3.65446917 15.5113541,3.50433566 C16.2034329,3.00267006 16.8039669,2.38016529 17.28,1.6661157 Z" id="Shape"></path>
            </g>
        </g>
    </g>
</svg>