<?xml version="1.0" encoding="UTF-8"?>
<svg width="16px" height="16px" viewBox="0 0 16 16" version="1.1" xmlns="http://www.w3.org/2000/svg" xmlns:xlink="http://www.w3.org/1999/xlink">
    <!-- Generator: sketchtool 52.6 (67491) - http://www.bohemiancoding.com/sketch -->
    <title>_UIKIT/Icons/16x16/Platform/MobileWeb/_EXPORT_</title>
    <desc>Created with sketchtool.</desc>
    <g id="Symbols" stroke="none" stroke-width="1" fill="none" fill-rule="evenodd">
        <g id="_UIKIT/Icons/16x16/Platform/MobileWeb/_EXPORT_" fill="#000000" fill-rule="nonzero">
            <path d="M14.8389102,9.5 C14.944412,9.016766 15,8.51487463 15,8 C15,7.48512537 14.944412,6.983234 14.8389102,6.5 L11.4385768,6.5 C11.4789001,6.98587614 11.5,7.4873059 11.5,8 C11.5,8.5126941 11.4789001,9.01412386 11.4385768,9.5 L14.8389102,9.5 Z M14.5403712,10.5 L11.3257094,10.5 C11.0717883,12.2658054 10.556192,13.7602292 9.88377055,14.7436139 C12.0259156,14.1464883 13.7539771,12.556089 14.5403712,10.5 Z M1.16108977,9.5 L4.56142315,9.5 C4.5210999,9.01412386 4.5,8.5126941 4.5,8 C4.5,7.4873059 4.5210999,6.98587614 4.56142315,6.5 L1.16108977,6.5 C1.05558796,6.983234 1,7.48512537 1,8 C1,8.51487463 1.05558796,9.016766 1.16108977,9.5 Z M1.45962882,10.5 C2.24602286,12.556089 3.97408438,14.1464883 6.11622945,14.7436139 C5.44380802,13.7602292 4.92821171,12.2658054 4.67429061,10.5 L1.45962882,10.5 Z M10.4336399,9.5 C10.4767141,9.01809364 10.5,8.51640483 10.5,8 C10.5,7.48359517 10.4767141,6.98190636 10.4336399,6.5 L5.56636009,6.5 C5.52328588,6.98190636 5.5,7.48359517 5.5,8 C5.5,8.51640483 5.52328588,9.01809364 5.56636009,9.5 L10.4336399,9.5 Z M10.3124062,10.5 L5.68759376,10.5 C6.09699972,13.1554591 7.10565175,15 8,15 C8.89434825,15 9.90300028,13.1554591 10.3124062,10.5 Z M14.5403712,5.5 C13.7539771,3.44391096 12.0259156,1.85351169 9.88377055,1.25638612 C10.556192,2.23977082 11.0717883,3.73419457 11.3257094,5.5 L14.5403712,5.5 Z M1.45962882,5.5 L4.67429061,5.5 C4.92821171,3.73419457 5.44380802,2.23977082 6.11622945,1.25638612 C3.97408438,1.85351169 2.24602286,3.44391096 1.45962882,5.5 Z M10.3124062,5.5 C9.90300028,2.84454086 8.89434825,1 8,1 C7.10565175,1 6.09699972,2.84454086 5.68759376,5.5 L10.3124062,5.5 Z M8,16 C3.581722,16 0,12.418278 0,8 C0,3.581722 3.581722,0 8,0 C12.418278,0 16,3.581722 16,8 C16,12.418278 12.418278,16 8,16 Z" id="Shape"></path>
        </g>
    </g>
</svg>