<?xml version="1.0" encoding="UTF-8"?>
<svg width="24px" height="24px" viewBox="0 0 24 24" version="1.1" xmlns="http://www.w3.org/2000/svg" xmlns:xlink="http://www.w3.org/1999/xlink">
    <!-- Generator: sketchtool 52.6 (67491) - http://www.bohemiancoding.com/sketch -->
    <title>_UIKIT/Icons/24x24/Platform/MobileWeb/_EXPORT_</title>
    <desc>Created with sketchtool.</desc>
    <g id="Symbols" stroke="none" stroke-width="1" fill="none" fill-rule="evenodd">
        <g id="_UIKIT/Icons/24x24/Platform/MobileWeb/_EXPORT_" fill="#000000" fill-rule="nonzero">
            <path d="M12,19 C8.13400675,19 5,15.8659932 5,12 C5,8.13400675 8.13400675,5 12,5 C15.8659932,5 19,8.13400675 19,12 C19,15.8659932 15.8659932,19 12,19 Z M18.0495845,12.0220947 C18.0495845,11.4996361 17.9967041,11 17.8300374,10.5 L15,10.5 C15.0345281,10.993033 15.0525956,11.5018487 15.0525956,12.0220947 C15.0525956,12.5423407 15.0345281,13.0511564 15,13.5441895 L17.8300374,13.5441895 C17.9967041,13.0824382 18.0495845,12.5445534 18.0495845,12.0220947 Z M6.22188314,13.5441895 L9.04958451,13.5441895 C9.01505641,13.0511564 8.99698893,12.5423407 8.99698893,12.0220947 C8.99698893,11.5018487 9.01505641,10.993033 9.04958451,10.5 L6.22188314,10.5 C6.07409668,11 6,11.4996361 6,12.0220947 C6,12.5445534 6.07409668,13.102417 6.22188314,13.5441895 Z M14.1163315,12.0220947 C14.1163315,11.4980833 14.0963922,10.9890048 14.0595085,10.5 L10.056823,10.5 C10.0199393,10.9890048 10,11.4980833 10,12.0220947 C10,12.5461061 10.0199393,13.0551847 10.056823,13.5441895 L14.0595085,13.5441895 C14.0963922,13.0551847 14.1163315,12.5461061 14.1163315,12.0220947 Z M14.8477469,14.1407064 C14.6303187,15.6527348 14.1888226,16.9323837 13.6130399,17.7744389 C15.4473213,17.2631307 16.9270302,15.9012996 17.6004057,14.1407064 L14.8477469,14.1407064 Z M10.3869601,17.7744389 C9.81117741,16.9323837 9.36968128,15.6527348 9.15225308,14.1407064 L6.39959428,14.1407064 C7.07296977,15.9012996 8.5526787,17.2631307 10.3869601,17.7744389 Z M10.2,14.1407064 C10.5505672,16.4145297 11.2341852,17.9939779 12,17.9939779 C12.7658148,17.9939779 13.4494328,16.4145297 13.8,14.1407064 L10.2,14.1407064 Z M13.6130399,6.2255611 C14.1888226,7.06761626 14.6303187,8.34726524 14.8477469,9.85929362 L17.6004057,9.85929362 C16.9270302,8.09870045 15.4473213,6.7368693 13.6130399,6.2255611 Z M9.15225308,9.85929362 C9.36968128,8.34726524 9.81117741,7.06761626 10.3869601,6.2255611 C8.5526787,6.7368693 7.07296977,8.09870045 6.39959428,9.85929362 L9.15225308,9.85929362 Z M12,6.00602214 C11.2341852,6.00602214 10.5539363,7.58547029 10.2033691,9.85929362 L13.8,9.85929362 C13.4494328,7.58547029 12.7658148,6.00602214 12,6.00602214 Z M6,13.5 L18,13.5 L18,14.5 L6,14.5 L6,13.5 Z M6,9.5 L18,9.5 L18,10.5 L6,10.5 L6,9.5 Z" id="Shape"></path>
        </g>
    </g>
</svg>