<?xml version="1.0" encoding="UTF-8"?>
<svg width="24px" height="24px" viewBox="0 0 24 24" version="1.1" xmlns="http://www.w3.org/2000/svg" xmlns:xlink="http://www.w3.org/1999/xlink">
    <!-- Generator: sketchtool 52.6 (67491) - http://www.bohemiancoding.com/sketch -->
    <title>_UIKIT/Icons/24x24/Platform/Android/_EXPORT_</title>
    <desc>Created with sketchtool.</desc>
    <g id="Symbols" stroke="none" stroke-width="1" fill="none" fill-rule="evenodd">
        <g id="_UIKIT/Icons/24x24/Platform/Android/_EXPORT_" fill="#000000" fill-rule="nonzero">
            <path d="M8,16 C8,16.3666667 8.3,16.6666667 8.66666667,16.6666667 L9.33333333,16.6666667 L9.33333333,19 C9.33333333,19.5533333 9.78,20 10.3333333,20 C10.8866667,20 11.3333333,19.5533333 11.3333333,19 L11.3333333,16.6666667 L12.6666667,16.6666667 L12.6666667,19 C12.6666667,19.5533333 13.1133333,20 13.6666667,20 C14.22,20 14.6666667,19.5533333 14.6666667,19 L14.6666667,16.6666667 L15.3333333,16.6666667 C15.7,16.6666667 16,16.3666667 16,16 L16,9.3 L8,9.3 L8,16 Z M6,9.33333333 C5.44666667,9.33333333 5,9.78 5,10.3333333 L5,15 C5,15.5533333 5.44666667,16 6,16 C6.55333333,16 7,15.5533333 7,15 L7,10.3333333 C7,9.78 6.55333333,9.33333333 6,9.33333333 Z M18,9.33333333 C17.4466667,9.33333333 17,9.78 17,10.3333333 L17,15 C17,15.5533333 17.4466667,16 18,16 C18.5533333,16 19,15.5533333 19,15 L19,10.3333333 C19,9.78 18.5533333,9.33333333 18,9.33333333 Z M15.22,4.57333333 C15.3533333,4.44 15.3533333,4.23333333 15.22,4.1 C15.0866667,3.96666667 14.88,3.96666667 14.7466667,4.1 L13.76,5.08666667 C13.2333333,4.82 12.6333333,4.66666667 12,4.66666667 C11.36,4.66666667 10.76,4.82 10.2266667,5.08666667 L9.23333333,4.1 C9.1,3.96666667 8.89333333,3.96666667 8.76,4.1 C8.62666667,4.23333333 8.62666667,4.44 8.76,4.57333333 L9.63333333,5.44666667 C8.64666667,6.17333333 8,7.47487373 8,8.3 L16,8.3 C16,7.47487373 15.3533333,6.16666667 14.3533333,5.44 L15.22,4.57333333 Z M10.6666667,7.33333333 L10,7.33333333 L10,6.66666667 L10.6666667,6.66666667 L10.6666667,7.33333333 Z M14,7.33333333 L13.3333333,7.33333333 L13.3333333,6.66666667 L14,6.66666667 L14,7.33333333 Z" id="Shape"></path>
        </g>
    </g>
</svg>