<?xml version="1.0" encoding="UTF-8"?>
<svg width="24px" height="24px" viewBox="0 0 24 24" version="1.1" xmlns="http://www.w3.org/2000/svg" xmlns:xlink="http://www.w3.org/1999/xlink">
    <!-- Generator: sketchtool 52.6 (67491) - http://www.bohemiancoding.com/sketch -->
    <title>_UIKIT/Icons/24x24/Platform/iOS/_EXPORT_</title>
    <desc>Created with sketchtool.</desc>
    <g id="Symbols" stroke="none" stroke-width="1" fill="none" fill-rule="evenodd">
        <g id="_UIKIT/Icons/24x24/Platform/iOS/_EXPORT_" fill="#000000">
            <path d="M14.4667728,6.64069802 C13.5562144,8.0436467 11.721911,8.00027502 11.721911,8.00027502 C11.721911,8.00027502 11.4154305,6.56003228 12.5822223,5.28001614 C13.749014,4 15.1662095,4 15.1662095,4 C15.1662095,4 15.3773312,5.23774933 14.4667728,6.64069802 Z M16.6609613,8.02884112 C17.7973365,8.46459841 18.4815785,9.40862584 18.4815785,9.40862584 C18.4815785,9.40862584 16.5839805,10.3122494 16.6609618,12.5553326 C16.7379431,14.7984159 19,15.7542988 19,15.7542988 C19,15.7542988 18.1329085,17.5753777 17.2714703,18.6373172 C16.8033495,19.2143939 15.8022438,20 15.0767157,20 C14.6062682,20 14.1657685,19.7442523 13.6679757,19.5603178 C13.2240495,19.396287 13.0909232,19.2874336 12.461376,19.25589 C11.9546513,19.2305004 11.2570423,19.424345 10.8819975,19.6158833 C10.4792035,19.8215933 9.67708812,20.1765004 8.88255646,19.8782 C7.97878262,19.5388856 7.16554683,18.6255489 6.50358879,17.5278095 C5.25968579,15.4650181 5.02578794,13.7583548 5.00245835,12.7203395 C4.99395403,12.3419525 4.96307364,11.0463921 5.82107795,9.70309263 C6.67908225,8.35979313 7.89613681,8.02884111 7.89613681,8.02884111 C7.89613681,8.02884111 9.02431044,7.55724535 10.5125128,8.02884112 C11.3672045,8.29968399 11.8036431,8.57368113 12.3596019,8.52485807 C12.9155608,8.476035 13.1873574,8.25137061 13.9543865,8.02884112 C14.7011169,7.8122007 15.8567288,7.72044806 16.6609613,8.02884112 Z" id="Apple-logo"></path>
        </g>
    </g>
</svg>